#!OML:ASF F:\VICON\USERDATA\INSTALL\rory3\rory3.ASF
:FULLY-SPECIFIED
:DEGREES
3351
root -1.12199 17.8538 -5.53754 -537.006 217.828 -543.266
lowerback 10.4555 2.69485 4.09514
upperback 0.068272 4.11944 0.885695
thorax -5.5672 1.92133 -1.98462
lowerneck -19.8757 -3.75629 -9.35196
upperneck 31.3682 -4.16947 5.27588
head 14.4514 -2.25102 2.9936
rclavicle -1.4064e-014 -7.95139e-015
rhumerus -27.6626 -4.46229 -81.1242
rradius 37.1002
rwrist 0.624703
rhand -17.3723 7.02461
rfingers 7.12502
rthumb 8.87611 -22.7687
lclavicle -1.4064e-014 -7.95139e-015
lhumerus -38.551 7.71872 80.6126
lradius 24.2514
lwrist -11.9983
lhand -16.149 25.3483
lfingers 7.12502
lthumb 10.0564 55.088
rfemur 9.87455 -3.70347 26.0541
rtibia 19.6516
rfoot -13.382 -6.54038
rtoes -15.3266
lfemur -19.7497 -2.7502 -18.5337
ltibia 15.0636
lfoot -1.23338 -4.32379
ltoes -8.39858
3352
root -1.19856 17.8632 -5.42754 -537.37 218.137 -542.924
lowerback 10.4391 2.85311 3.77132
upperback 0.00900981 4.29002 0.831562
thorax -5.62938 2.01164 -1.88632
lowerneck -19.4611 -3.78244 -9.47693
upperneck 31.3527 -4.27215 5.44926
head 14.3708 -2.29318 3.0697
rclavicle 9.59136e-015 1.35174e-014
rhumerus -28.0967 -4.61892 -81.0366
rradius 37.3943
rwrist 0.541042
rhand -17.3374 7.14798
rfingers 7.12502
rthumb 8.90981 -22.6439
lclavicle 9.59136e-015 1.35174e-014
lhumerus -38.5558 7.53795 80.6498
lradius 24.0284
lwrist -11.9028
lhand -16.5054 25.413
lfingers 7.12502
lthumb 9.71258 55.1691
rfemur 10.0414 -3.35493 25.6101
rtibia 20.5524
rfoot -13.1577 -6.09492
rtoes -14.2116
lfemur -19.2461 -2.456 -18.904
ltibia 15.0186
lfoot -0.237499 -4.98463
ltoes -6.80284
3353
root -1.27985 17.8766 -5.31608 -537.809 218.59 -542.465
lowerback 10.3992 3.02047 3.28183
upperback 0.0333901 4.44634 0.739904
thorax -5.60162 2.10227 -1.72869
lowerneck -19.4031 -3.77404 -9.45082
upperneck 31.387 -4.32552 5.57998
head 14.3806 -2.29705 3.11075
rclavicle 9.3727e-014 -2.38542e-014
rhumerus -28.2323 -4.79552 -81.1019
rradius 37.492
rwrist 0.532494
rhand -17.469 7.13747
rfingers 7.12502
rthumb 8.78276 -22.6598
lclavicle 9.3727e-014 -2.38542e-014
lhumerus -38.4896 7.49171 80.6235
lradius 23.9337
lwrist -11.7928
lhand -16.9699 25.4092
lfingers 7.12502
lthumb 9.26439 55.1856
rfemur 9.99402 -2.93412 25.1035
rtibia 21.8112
rfoot -12.7198 -5.85584
rtoes -14.161
lfemur -18.5877 -2.0035 -19.3707
ltibia 14.7403
lfoot 0.659354 -5.44217
ltoes -3.82093
3354
root -1.35787 17.8903 -5.20605 -538.208 218.927 -542.149
lowerback 10.4091 3.08247 2.95565
upperback 0.112938 4.4825 0.65293
thorax -5.53908 2.13006 -1.64082
lowerneck -19.5535 -3.73254 -9.28432
upperneck 31.4826 -4.32564 5.60989
head 14.4515 -2.27279 3.0961
rclavicle -7.18607e-014 -1.09332e-014
rhumerus -28.2325 -4.9954 -81.2919
rradius 37.5083
rwrist 0.578564
rhand -17.6048 7.17718
rfingers 7.12502
rthumb 8.6517 -22.6255
lclavicle -7.18607e-014 -1.09332e-014
lhumerus -38.4195 7.76131 80.4264
lradius 23.8847
lwrist -11.8889
lhand -17.1925 25.4087
lfingers 7.12502
lthumb 9.04959 55.1945
rfemur 9.77382 -2.70541 24.7276
rtibia 23.373
rfoot -12.1455 -5.69662
rtoes -14.3569
lfemur -17.8171 -1.47675 -19.7527
ltibia 14.3514
lfoot 1.26963 -6.05233
ltoes -2.65693
3355
root -1.43504 17.8976 -5.09643 -538.647 219.083 -541.682
lowerback 10.4017 3.09758 2.57865
upperback -0.0205085 4.45584 0.540362
thorax -5.69605 2.12213 -1.54952
lowerneck -19.0614 -3.65476 -9.29964
upperneck 31.5583 -4.30557 5.7161
head 14.3764 -2.26308 3.15043
rclavicle -4.96713e-014 3.97569e-015
rhumerus -28.7505 -5.23626 -81.3767
rradius 37.5306
rwrist 0.817201
rhand -17.76 7.25387
rfingers 7.12502
rthumb 8.5019 -22.555
lclavicle -4.96713e-014 3.97569e-015
lhumerus -38.8027 7.92388 80.2073
lradius 23.9265
lwrist -11.9183
lhand -17.1642 25.4609
lfingers 7.12502
lthumb 9.07686 55.2456
rfemur 9.35701 -2.6949 24.2169
rtibia 25.1545
rfoot -11.4367 -5.4944
rtoes -15.0673
lfemur -17.0556 -0.99193 -20.2924
ltibia 13.9515
lfoot 1.55122 -6.75034
ltoes -4.40189
3356
root -1.51448 17.9107 -4.98561 -539.121 219.138 -541.122
lowerback 10.3009 3.07739 2.14355
upperback 0.005574 4.36544 0.397121
thorax -5.63632 2.08979 -1.43637
lowerneck -18.9929 -3.6272 -9.32168
upperneck 31.6014 -4.32847 5.88294
head 14.3872 -2.25566 3.22073
rclavicle 3.02153e-014 -5.36719e-015
rhumerus -28.8923 -5.59176 -81.4836
rradius 37.4812
rwrist 1.0954
rhand -17.9166 7.20726
rfingers 7.12502
rthumb 8.35087 -22.6077
lclavicle 3.02153e-014 -5.36719e-015
lhumerus -38.7494 8.16806 79.9846
lradius 23.7744
lwrist -11.9161
lhand -17.2057 25.2397
lfingers 7.12502
lthumb 9.0369 55.0261
rfemur 8.87361 -2.73395 23.6089
rtibia 27.0699
rfoot -10.6891 -5.10124
rtoes -14.2183
lfemur -16.2279 -0.605074 -20.9073
ltibia 13.517
lfoot 1.53718 -7.03475
ltoes -7.13978
3357
root -1.59011 17.9312 -4.87755 -539.564 219.087 -540.725
lowerback 10.3352 3.02488 1.86102
upperback 0.120494 4.2528 0.276133
thorax -5.54953 2.04258 -1.38663
lowerneck -19.2004 -3.61845 -9.26011
upperneck 31.6359 -4.3746 6.04227
head 14.4552 -2.24334 3.26822
rclavicle 3.34455e-014 7.7526e-015
rhumerus -28.8006 -6.04217 -81.6314
rradius 37.3296
rwrist 1.23807
rhand -17.9633 7.19227
rfingers 7.12502
rthumb 8.30577 -22.6244
lclavicle 3.34455e-014 7.7526e-015
lhumerus -38.3847 8.59971 79.6951
lradius 23.4331
lwrist -12.2116
lhand -17.1573 24.8057
lfingers 7.12502
lthumb 9.08354 54.5901
rfemur 8.36413 -2.95204 23.0826
rtibia 29.0443
rfoot -9.76799 -4.48035
rtoes -12.3434
lfemur -15.3043 -0.494641 -21.3405
ltibia 13.0788
lfoot 1.61697 -6.9888
ltoes -7.75448
3358
root -1.66645 17.9543 -4.76934 -540.026 218.99 -540.305
lowerback 10.4213 3.00954 1.50623
upperback 0.0354758 4.19035 0.215466
thorax -5.71019 2.01789 -1.25181
lowerneck -18.7971 -3.619 -9.36891
upperneck 31.6461 -4.42846 6.1669
head 14.3821 -2.27121 3.33068
rclavicle 1.9543e-014 4.96962e-015
rhumerus -29.1805 -6.60535 -81.5567
rradius 37.1437
rwrist 1.53493
rhand -17.8104 7.32158
rfingers 7.12502
rthumb 8.45334 -22.4892
lclavicle 1.9543e-014 4.96962e-015
lhumerus -38.464 8.72374 79.585
lradius 23.2661
lwrist -12.3449
lhand -17.1021 24.6232
lfingers 7.12502
lthumb 9.1368 54.4052
rfemur 7.79339 -3.3651 22.4844
rtibia 31.001
rfoot -8.43895 -3.86149
rtoes -11.961
lfemur -14.408 -0.498108 -21.7539
ltibia 12.7455
lfoot 1.75026 -7.14217
ltoes -4.82354
3359
root -1.7446 17.9755 -4.66 -540.333 218.826 -540.045
lowerback 10.3673 2.93196 1.29179
upperback 0.0522171 4.05722 0.161555
thorax -5.67676 1.95842 -1.16507
lowerneck -18.755 -3.62529 -9.35362
upperneck 31.7275 -4.46545 6.19589
head 14.4132 -2.28439 3.33575
rclavicle 1.08437e-013 -3.77691e-015
rhumerus -29.3323 -7.41618 -81.5094
rradius 36.8118
rwrist 2.03365
rhand -17.5921 7.97265
rfingers 7.12502
rthumb 8.66402 -21.8296
lclavicle 1.08437e-013 -3.77691e-015
lhumerus -38.4456 8.78255 79.5206
lradius 23.2354
lwrist -12.2463
lhand -17.2486 24.8121
lfingers 7.12502
lthumb 8.99542 54.6003
rfemur 7.13093 -3.83753 21.9986
rtibia 32.954
rfoot -6.84008 -3.20198
rtoes -11.9847
lfemur -13.5679 -0.48181 -22.0439
ltibia 12.4439
lfoot 1.77538 -7.49242
ltoes -0.866681
3360
root -1.82095 17.992 -4.54962 -540.581 218.686 -540.016
lowerback 10.3169 2.79301 1.30907
upperback 0.226519 3.86833 0.130767
thorax -5.46638 1.868 -1.16994
lowerneck -19.064 -3.60967 -9.22758
upperneck 31.7899 -4.45007 6.17201
head 14.5038 -2.26148 3.30741
rclavicle -7.95263e-014 7.55382e-015
rhumerus -29.1955 -8.06729 -81.5592
rradius 36.4346
rwrist 2.18279
rhand -17.2568 8.77619
rfingers 7.12502
rthumb 8.98754 -21.0124
lclavicle -7.95263e-014 7.55382e-015
lhumerus -38.2328 9.09301 79.377
lradius 23.2938
lwrist -12.0702
lhand -17.3369 25.1475
lfingers 7.12502
lthumb 8.91027 54.9394
rfemur 6.50007 -4.19219 21.6979
rtibia 34.8999
rfoot -4.97298 -2.54464
rtoes -9.69917
lfemur -12.6607 -0.416011 -22.1647
ltibia 12.1468
lfoot 1.7092 -7.77106
ltoes 0.760816
3361
root -1.89567 18.0064 -4.43732 -540.904 218.625 -539.866
lowerback 10.2975 2.7136 1.26458
upperback 0.223382 3.75561 0.0987903
thorax -5.4623 1.81342 -1.1611
lowerneck -18.7163 -3.55913 -9.28675
upperneck 31.7132 -4.4082 6.22574
head 14.3902 -2.24936 3.34637
rclavicle -3.84648e-014 5.1684e-015
rhumerus -29.6093 -8.44552 -81.5464
rradius 36.3722
rwrist 1.9227
rhand -17.1274 8.94358
rfingers 7.12502
rthumb 9.11244 -20.8396
lclavicle -3.84648e-014 5.1684e-015
lhumerus -38.3842 9.20075 79.3091
lradius 23.3975
lwrist -11.9253
lhand -17.3622 25.5757
lfingers 7.12502
lthumb 8.88585 55.3686
rfemur 5.79409 -4.42571 21.2861
rtibia 36.8512
rfoot -2.77112 -1.87743
rtoes -6.73472
lfemur -11.7867 -0.373097 -22.3974
ltibia 11.8875
lfoot 1.60351 -7.84042
ltoes 1.39949
3362
root -1.96805 18.0206 -4.32621 -541.137 218.501 -539.716
lowerback 10.1874 2.60425 1.17105
upperback 0.289817 3.59597 0.0863582
thorax -5.33964 1.73903 -1.09068
lowerneck -18.7817 -3.5471 -9.30685
upperneck 31.7578 -4.393 6.26046
head 14.4247 -2.24085 3.36812
rclavicle -1.19022e-014 -3.97569e-016
rhumerus -29.8853 -8.43834 -81.7359
rradius 36.5924
rwrist 1.87772
rhand -17.6547 7.60197
rfingers 7.12502
rthumb 8.60359 -22.2027
lclavicle -1.19022e-014 -3.97569e-016
lhumerus -38.4259 9.09211 79.4457
lradius 23.5869
lwrist -11.657
lhand -17.4566 25.5632
lfingers 7.12502
lthumb 8.79473 55.36
rfemur 4.92791 -4.78129 20.8371
rtibia 38.8197
rfoot -0.368864 -1.12588
rtoes -4.82648
lfemur -11.0002 -0.321238 -22.6419
ltibia 11.5765
lfoot 1.54862 -8.0514
ltoes 2.21594
3363
root -2.04119 18.037 -4.2204 -541.335 218.365 -539.629
lowerback 10.1222 2.43763 1.00264
upperback 0.467946 3.35268 0.119788
thorax -5.13353 1.62634 -0.918279
lowerneck -19.3071 -3.53266 -9.22914
upperneck 31.8248 -4.3343 6.22428
head 14.5628 -2.20296 3.35082
rclavicle -5.41315e-014 8.74653e-015
rhumerus -29.7554 -8.65932 -81.9178
rradius 36.5775
rwrist 2.23708
rhand -17.9395 6.62318
rfingers 7.12502
rthumb 8.32871 -23.1926
lclavicle -5.41315e-014 8.74653e-015
lhumerus -38.2243 9.3181 79.5353
lradius 23.7283
lwrist -11.6303
lhand -17.7694 24.8778
lfingers 7.12502
lthumb 8.49284 54.687
rfemur 3.93953 -5.17684 20.4672
rtibia 40.7999
rfoot 2.17086 -0.267354
rtoes -4.00834
lfemur -10.1486 -0.172705 -22.836
ltibia 11.0894
lfoot 1.55603 -8.41908
ltoes 2.20504
